<svg width="708" height="415" viewBox="0 0 708 415" fill="none" xmlns="http://www.w3.org/2000/svg">
<g opacity="0.5">
<path d="M270.484 218.317C270.577 228.507 269.318 238.36 266.707 247.875C264.196 257.29 260.58 266.165 255.86 274.501C251.14 282.737 245.414 290.283 238.683 297.138C231.951 303.994 224.512 309.907 216.364 314.877C208.216 319.747 199.408 323.524 189.941 326.209C180.475 328.993 170.647 330.431 160.457 330.524C150.266 330.618 140.413 329.359 130.898 326.748C121.483 324.236 112.608 320.621 104.272 315.901C96.0352 311.081 88.489 305.305 81.6335 298.573C74.7779 291.842 68.8651 284.402 63.8949 276.255C59.0238 268.007 55.1966 259.2 52.4134 249.833C49.7292 240.366 48.3405 230.537 48.2474 220.347C48.1543 210.157 49.3631 200.305 51.8739 190.79C54.4846 181.274 58.1502 172.399 62.8707 164.163C67.6912 155.926 73.4671 148.38 80.1985 141.524C86.9299 134.669 94.3697 128.806 102.518 123.936C110.766 119.064 119.574 115.287 128.941 112.604C138.407 109.82 148.236 108.381 158.426 108.288C168.616 108.195 178.469 109.454 187.984 112.064C197.499 114.575 206.374 118.191 214.61 122.911C222.846 127.632 230.392 133.358 237.248 140.089C244.103 146.821 249.966 154.26 254.836 162.409C259.706 170.557 263.484 179.365 266.168 188.832C268.952 198.298 270.391 208.126 270.484 218.317ZM227.775 218.707C227.689 209.316 225.81 200.491 222.138 192.232C218.464 183.873 213.503 176.674 207.253 170.637C201.103 164.498 193.815 159.669 185.39 156.149C177.065 152.629 168.207 150.911 158.816 150.997C149.325 151.084 140.45 152.963 132.191 156.635C123.932 160.308 116.734 165.269 110.596 171.52C104.458 177.671 99.6287 184.958 96.1088 193.383C92.588 201.708 90.8705 210.566 90.9563 219.957C91.0421 229.348 92.9212 238.173 96.5935 246.432C100.265 254.591 105.226 261.74 111.477 267.877C117.727 274.015 125.015 278.844 133.34 282.365C141.665 285.885 150.573 287.602 160.064 287.516C169.455 287.43 178.28 285.551 186.539 281.879C194.898 278.205 202.096 273.244 208.134 266.994C214.271 260.743 219.101 253.506 222.622 245.281C226.143 236.956 227.861 228.098 227.775 218.707ZM471.665 323.035L425.659 323.455L341.496 182.748L342.789 324.212L299.78 324.605L297.817 109.712L343.822 109.292L427.987 250.148L426.693 108.534L469.701 108.141L471.665 323.035ZM658.985 321.323L511.676 322.669L509.713 107.776L657.021 106.43L657.414 149.439L553.115 150.392L553.508 193.4L624.09 192.755L624.483 235.764L553.901 236.409L554.292 279.268L658.592 278.315L658.985 321.323Z" fill="white"/>
<rect x="22.4846" y="414.961" width="61.3836" height="337.61" transform="rotate(-90 22.4846 414.961)" fill="#5AE06C"/>
<rect x="360.094" y="62.0055" width="61.3836" height="322.264" transform="rotate(-90 360.094 62.0055)" fill="#08CEFB"/>
<rect x="360.094" y="414.961" width="61.3836" height="322.264" transform="rotate(-90 360.094 414.961)" fill="#FF0856"/>
<rect x="22.4847" y="62.0053" width="61.3836" height="337.61" transform="rotate(-90 22.4847 62.0053)" fill="#F9EB18"/>
</g>
</svg>
