<svg width="80" height="73" viewBox="0 0 80 73" fill="none" xmlns="http://www.w3.org/2000/svg">
<path d="M40.4348 0.405136C42.339 0.405136 44.1651 1.16155 45.5115 2.50798C46.858 3.85441 47.6144 5.68056 47.6144 7.58469C47.6144 10.2411 46.1785 12.5745 44.0246 13.795V18.354H47.6144C54.2789 18.354 60.6704 21.0015 65.3829 25.714C70.0954 30.4265 72.7428 36.818 72.7428 43.4825H76.3326C77.2847 43.4825 78.1978 43.8607 78.871 44.5339C79.5442 45.2071 79.9224 46.1202 79.9224 47.0723V57.8416C79.9224 58.7937 79.5442 59.7068 78.871 60.38C78.1978 61.0532 77.2847 61.4314 76.3326 61.4314H72.7428V65.0212C72.7428 66.9253 71.9864 68.7514 70.64 70.0979C69.2936 71.4443 67.4674 72.2007 65.5633 72.2007H15.3064C13.4022 72.2007 11.5761 71.4443 10.2297 70.0979C8.88324 68.7514 8.12682 66.9253 8.12682 65.0212V61.4314H4.53704C3.58498 61.4314 2.6719 61.0532 1.99869 60.38C1.32547 59.7068 0.947266 58.7937 0.947266 57.8416V47.0723C0.947266 46.1202 1.32547 45.2071 1.99869 44.5339C2.6719 43.8607 3.58498 43.4825 4.53704 43.4825H8.12682C8.12682 36.818 10.7743 30.4265 15.4868 25.714C20.1993 21.0015 26.5908 18.354 33.2553 18.354H36.8451V13.795C34.6912 12.5745 33.2553 10.2411 33.2553 7.58469C33.2553 5.68056 34.0117 3.85441 35.3581 2.50798C36.7045 1.16155 38.5307 0.405136 40.4348 0.405136ZM24.2808 39.8927C21.9007 39.8927 19.618 40.8382 17.9349 42.5213C16.2519 44.2043 15.3064 46.487 15.3064 48.8672C15.3064 51.2473 16.2519 53.53 17.9349 55.2131C19.618 56.8961 21.9007 57.8416 24.2808 57.8416C26.661 57.8416 28.9437 56.8961 30.6267 55.2131C32.3098 53.53 33.2553 51.2473 33.2553 48.8672C33.2553 46.487 32.3098 44.2043 30.6267 42.5213C28.9437 40.8382 26.661 39.8927 24.2808 39.8927ZM56.5888 39.8927C54.2087 39.8927 51.926 40.8382 50.2429 42.5213C48.5599 44.2043 47.6144 46.487 47.6144 48.8672C47.6144 51.2473 48.5599 53.53 50.2429 55.2131C51.926 56.8961 54.2087 57.8416 56.5888 57.8416C58.969 57.8416 61.2517 56.8961 62.9347 55.2131C64.6178 53.53 65.5633 51.2473 65.5633 48.8672C65.5633 46.487 64.6178 44.2043 62.9347 42.5213C61.2517 40.8382 58.969 39.8927 56.5888 39.8927Z" fill="white"/>
</svg>
