<svg width="61" height="62" viewBox="0 0 61 62" fill="none" xmlns="http://www.w3.org/2000/svg">
<path d="M10.3218 60.9379C4.79893 60.9379 0.321777 56.4608 0.321777 50.9379L0.321777 30.9379H30.3218V60.9379H10.3218Z" fill="#5AE06C"/>
<path d="M30.436 31.0526V1.05258H50.436C55.9589 1.05258 60.436 5.52973 60.436 11.0526V31.0526H30.436Z" fill="#08CEFB"/>
<path d="M30.3215 61.0524V31.0524H60.3215V51.0524C60.3215 56.5752 55.8444 61.0524 50.3215 61.0524H30.3215Z" fill="#FF0856"/>
<path d="M0.436279 30.9381L0.436279 10.9381C0.436279 5.41526 4.91343 0.93811 10.4363 0.93811H30.4363V30.9381H0.436279Z" fill="#F9EB18"/>
<path d="M36.3427 55H27.0462V17.8467H22.4142V8.55024H36.3427V55Z" fill="white"/>
<rect x="20" y="46" width="24.1579" height="8.94736" fill="white"/>
</svg>
