<svg width="33" height="33" viewBox="0 0 33 33" fill="none" xmlns="http://www.w3.org/2000/svg">
<path fill-rule="evenodd" clip-rule="evenodd" d="M17.8554 26.1014C18.6932 26.1014 19.4967 26.4343 20.0891 27.0267C20.6815 27.6191 21.0144 28.4226 21.0144 29.2605C21.0144 30.0983 20.6815 30.9018 20.0891 31.4942C19.4967 32.0866 18.6932 32.4195 17.8554 32.4195C17.0175 32.4195 16.214 32.0866 15.6216 31.4942C15.0292 30.9018 14.6964 30.0983 14.6964 29.2605C14.6964 28.4226 15.0292 27.6191 15.6216 27.0267C16.214 26.4343 17.0175 26.1014 17.8554 26.1014ZM7.96926 21.3629C9.01653 21.3629 10.0209 21.779 10.7614 22.5195C11.502 23.26 11.918 24.2644 11.918 25.3117C11.918 26.359 11.502 27.3634 10.7614 28.1039C10.0209 28.8444 9.01653 29.2605 7.96926 29.2605C6.92198 29.2605 5.9176 28.8444 5.17706 28.1039C4.43653 27.3634 4.0205 26.359 4.0205 25.3117C4.0205 24.2644 4.43653 23.26 5.17706 22.5195C5.9176 21.779 6.92198 21.3629 7.96926 21.3629ZM26.2567 22.1527C27.0946 22.1527 27.8981 22.4855 28.4905 23.0779C29.0829 23.6704 29.4157 24.4739 29.4157 25.3117C29.4157 26.1495 29.0829 26.953 28.4905 27.5455C27.8981 28.1379 27.0946 28.4707 26.2567 28.4707C25.4189 28.4707 24.6154 28.1379 24.023 27.5455C23.4306 26.953 23.0977 26.1495 23.0977 25.3117C23.0977 24.4739 23.4306 23.6704 24.023 23.0779C24.6154 22.4855 25.4189 22.1527 26.2567 22.1527ZM29.7016 15.5488C30.33 15.5488 30.9326 15.7984 31.3769 16.2427C31.8213 16.6871 32.0709 17.2897 32.0709 17.918C32.0709 18.5464 31.8213 19.149 31.3769 19.5934C30.9326 20.0377 30.33 20.2873 29.7016 20.2873C29.0733 20.2873 28.4706 20.0377 28.0263 19.5934C27.582 19.149 27.3324 18.5464 27.3324 17.918C27.3324 17.2897 27.582 16.6871 28.0263 16.2427C28.4706 15.7984 29.0733 15.5488 29.7016 15.5488ZM4.42959 10.3064C5.47687 10.3064 6.48125 10.7225 7.22178 11.463C7.96232 12.2035 8.37835 13.2079 8.37835 14.2552C8.37835 15.3025 7.96232 16.3068 7.22178 17.0474C6.48125 17.7879 5.47687 18.2039 4.42959 18.2039C3.38232 18.2039 2.37793 17.7879 1.6374 17.0474C0.896864 16.3068 0.480835 15.3025 0.480835 14.2552C0.480835 13.2079 0.896864 12.2035 1.6374 11.463C2.37793 10.7225 3.38232 10.3064 4.42959 10.3064ZM28.5739 9.05388C28.9928 9.05388 29.3945 9.22029 29.6907 9.5165C29.987 9.81272 30.1534 10.2145 30.1534 10.6334C30.1534 11.0523 29.987 11.454 29.6907 11.7503C29.3945 12.0465 28.9928 12.2129 28.5739 12.2129C28.155 12.2129 27.7532 12.0465 27.457 11.7503C27.1608 11.454 26.9944 11.0523 26.9944 10.6334C26.9944 10.2145 27.1608 9.81272 27.457 9.5165C27.7532 9.22029 28.155 9.05388 28.5739 9.05388ZM13.1169 0.829407C14.3736 0.829407 15.5788 1.32864 16.4675 2.21728C17.3561 3.10593 17.8554 4.31118 17.8554 5.56791C17.8554 6.82465 17.3561 8.0299 16.4675 8.91855C15.5788 9.80719 14.3736 10.3064 13.1169 10.3064C11.8601 10.3064 10.6549 9.80719 9.76623 8.91855C8.87758 8.0299 8.37835 6.82465 8.37835 5.56791C8.37835 4.31118 8.87758 3.10593 9.76623 2.21728C10.6549 1.32864 11.8601 0.829407 13.1169 0.829407ZM24.9631 5.56791C25.1726 5.56791 25.3735 5.65112 25.5216 5.79923C25.6697 5.94733 25.7529 6.14821 25.7529 6.35767C25.7529 6.56712 25.6697 6.768 25.5216 6.9161C25.3735 7.06421 25.1726 7.14742 24.9631 7.14742C24.7537 7.14742 24.5528 7.06421 24.4047 6.9161C24.2566 6.768 24.1734 6.56712 24.1734 6.35767C24.1734 6.14821 24.2566 5.94733 24.4047 5.79923C24.5528 5.65112 24.7537 5.56791 24.9631 5.56791Z" fill="white"/>
</svg>
