<svg width="86" height="50" viewBox="0 0 86 50" fill="none" xmlns="http://www.w3.org/2000/svg">
<path d="M0 10C0 4.47715 4.47715 0 10 0H43V25H0V10Z" fill="#F9EB18"/>
<path d="M43 0H76C81.5228 0 86 4.47715 86 10V25H43V0Z" fill="#08CEFB"/>
<path d="M0 25H43V50H10C4.47715 50 0 45.5228 0 40V25Z" fill="#5AE06C"/>
<path d="M43 25H86V40C86 45.5228 81.5228 50 76 50H43V25Z" fill="#FF0856"/>
<path d="M29.6339 25.5474C29.6442 26.5963 29.5153 27.6105 29.2473 28.5901C28.9894 29.5593 28.6179 30.473 28.1327 31.3314C27.6474 32.1794 27.0586 32.9565 26.3663 33.6626C25.6739 34.3687 24.9086 34.9778 24.0704 35.4899C23.2321 35.9918 22.3258 36.3812 21.3515 36.6581C20.3774 36.9454 19.3659 37.0941 18.3171 37.1044C17.2682 37.1147 16.254 36.9859 15.2744 36.7178C14.3052 36.46 13.3915 36.0885 12.5332 35.6033C11.685 35.1077 10.9079 34.5138 10.2018 33.8214C9.49572 33.1291 8.88661 32.3638 8.37447 31.5255C7.87251 30.6769 7.47796 29.7707 7.19083 28.8068C6.91388 27.8326 6.77025 26.8211 6.75994 25.7722C6.74964 24.7234 6.87336 23.7092 7.13111 22.7297C7.39914 21.7502 7.7758 20.8363 8.26109 19.9883C8.75666 19.1402 9.35062 18.3631 10.043 17.657C10.7353 16.9509 11.5007 16.3469 12.339 15.845C13.1876 15.3431 14.0939 14.9537 15.0578 14.6768C16.032 14.3896 17.0435 14.2408 18.0923 14.2305C19.1411 14.2202 20.1554 14.3491 21.1349 14.6171C22.1144 14.8748 23.0282 15.2464 23.8762 15.7317C24.7243 16.2169 25.5013 16.8058 26.2074 17.4981C26.9135 18.1905 27.5175 18.9558 28.0193 19.7941C28.5212 20.6325 28.9106 21.5388 29.1876 22.513C29.4748 23.4871 29.6236 24.4986 29.6339 25.5474ZM25.238 25.5906C25.2285 24.6241 25.0345 23.7159 24.6559 22.866C24.2772 22.0059 23.7661 21.2654 23.1224 20.6444C22.4889 20.013 21.7384 19.5165 20.871 19.1548C20.0139 18.793 19.1021 18.6169 18.1355 18.6264C17.1586 18.636 16.2453 18.8301 15.3955 19.2086C14.5456 19.5872 13.8051 20.0984 13.1738 20.7422C12.5425 21.3757 12.0459 22.1261 11.6842 22.9935C11.3225 23.8506 11.1463 24.7625 11.1558 25.729C11.1653 26.6956 11.3593 27.6038 11.7379 28.4536C12.1164 29.2932 12.6275 30.0286 13.2713 30.6598C13.9151 31.2911 14.6655 31.7876 15.5226 32.1494C16.3797 32.5112 17.2967 32.6873 18.2736 32.6777C19.2402 32.6682 20.1484 32.4742 20.9982 32.0956C21.8583 31.717 22.5989 31.2058 23.2198 30.5621C23.8511 29.9183 24.3477 29.173 24.7096 28.3262C25.0714 27.4691 25.2475 26.5572 25.238 25.5906ZM50.3482 36.3115L45.613 36.358L36.9404 21.8815L37.0835 36.4418L32.6568 36.4853L32.4394 14.3672L37.1746 14.3206L45.8474 28.8126L45.7042 14.2368L50.1309 14.1933L50.3482 36.3115ZM69.6283 36.122L54.4665 36.271L54.2491 14.1529L69.411 14.0039L69.4545 18.4306L58.7193 18.5361L58.7628 22.9628L66.0276 22.8914L66.0711 27.3181L58.8063 27.3895L58.8497 31.8008L69.5848 31.6953L69.6283 36.122ZM76.6852 30.592L73.2456 30.6258L72.141 13.977L77.4778 13.9246L76.6852 30.592ZM77.6488 34.4698C77.6525 34.84 77.5839 35.1903 77.4432 35.5207C77.3127 35.8408 77.1303 36.1203 76.8961 36.3591C76.6619 36.5979 76.3861 36.7857 76.0687 36.9225C75.7513 37.0696 75.4127 37.1449 75.0528 37.1485C74.6826 37.1521 74.3374 37.0835 74.0173 36.9427C73.6972 36.8122 73.4126 36.6298 73.1635 36.3958C72.9247 36.1616 72.7317 35.8858 72.5846 35.5685C72.4477 35.2407 72.3774 34.8918 72.3738 34.5216C72.3703 34.1617 72.4338 33.8217 72.5643 33.5017C72.7051 33.1815 72.8926 32.902 73.1268 32.6631C73.3713 32.4242 73.6522 32.2363 73.9697 32.0995C74.287 31.9524 74.6308 31.8771 75.001 31.8734C75.3609 31.8699 75.7009 31.9386 76.0211 32.0794C76.3412 32.2099 76.6206 32.3923 76.8594 32.6265C77.0983 32.8606 77.2861 33.1365 77.4229 33.4539C77.57 33.7713 77.6453 34.1099 77.6488 34.4698Z" fill="white"/>
</svg>
