<svg width="84" height="81" viewBox="0 0 84 81" fill="none" xmlns="http://www.w3.org/2000/svg">
<path d="M36.2567 46.9616C36.9615 47.7385 37.5393 48.5819 37.9902 49.4919C38.4417 50.3875 38.7714 51.3171 38.9794 52.2809C39.1804 53.2371 39.2569 54.209 39.2089 55.1967C39.1609 56.1845 38.994 57.1482 38.7081 58.088C38.4153 59.0202 37.9969 59.9135 37.4531 60.7679C36.9162 61.63 36.2593 62.4134 35.4825 63.1182C34.7057 63.823 33.8623 64.4008 32.9522 64.8516C32.0567 65.3031 31.127 65.6329 30.1633 65.8408C29.2002 66.0343 28.2248 66.107 27.237 66.059C26.2493 66.011 25.2856 65.844 24.3458 65.5581C23.4067 65.2577 22.5096 64.8428 21.6545 64.3135C20.8 63.7697 20.0204 63.1094 19.3156 62.3326C18.6108 61.5557 18.0292 60.7158 17.5707 59.8126C17.1199 58.9026 16.794 57.9695 16.593 57.0133C16.3995 56.0502 16.3268 55.0748 16.3748 54.0871C16.4228 53.0994 16.5932 52.1394 16.886 51.2072C17.1865 50.2682 17.6048 49.3749 18.141 48.5273C18.6779 47.6653 19.3348 46.8819 20.1116 46.1771C20.8884 45.4723 21.7318 44.8944 22.6419 44.4436C23.545 43.9852 24.4747 43.6555 25.4309 43.4544C26.387 43.2534 27.359 43.1768 28.3467 43.2248C29.3344 43.2728 30.2944 43.4433 31.2265 43.7361C32.1587 44.0289 33.052 44.4472 33.9064 44.9911C34.7685 45.528 35.5519 46.1848 36.2567 46.9616ZM33.001 49.9156C32.3515 49.1997 31.6029 48.6501 30.7552 48.2668C29.9006 47.8758 29.0265 47.6622 28.1328 47.6261C27.2399 47.5754 26.3491 47.7032 25.4607 48.0095C24.5798 48.3088 23.7814 48.7832 23.0656 49.4328C22.3421 50.0892 21.7886 50.8413 21.4053 51.6889C21.0219 52.5366 20.8084 53.4108 20.7646 54.3113C20.7139 55.2043 20.8417 56.095 21.148 56.9835C21.4473 57.8644 21.9218 58.6627 22.5713 59.3786C23.2208 60.0945 23.9694 60.6441 24.8171 61.0274C25.6579 61.4032 26.5286 61.6129 27.4291 61.6567C28.3297 61.7005 29.2204 61.5727 30.1013 61.2733C30.9822 60.974 31.7843 60.4961 32.5078 59.8396C33.2237 59.1901 33.7733 58.4415 34.1567 57.5938C34.5476 56.7392 34.7612 55.8651 34.7973 54.9714C34.8411 54.0709 34.7168 53.1839 34.4243 52.3107C34.125 51.4298 33.6505 50.6315 33.001 49.9156ZM58.8879 41.2365L55.3809 44.4185L39.2794 39.3663L49.0637 50.1502L45.7851 53.1249L30.9221 36.7435L34.4291 33.5615L50.541 38.6251L40.7464 27.8298L44.0249 24.8551L58.8879 41.2365ZM73.1674 28.2806L61.938 38.4691L47.075 22.0877L58.3044 11.8992L61.2791 15.1778L53.3283 22.3916L56.3029 25.6702L61.6834 20.7884L64.6581 24.067L59.2776 28.9488L62.2419 32.2159L70.1927 25.002L73.1674 28.2806Z" fill="white"/>
<rect x="30.7854" y="79.1926" width="6.31801" height="34.7491" transform="rotate(-131.694 30.7854 79.1926)" fill="#5AE06C"/>
<rect x="32.5685" y="28.9523" width="6.31801" height="33.1696" transform="rotate(-131.694 32.5685 28.9523)" fill="#08CEFB"/>
<rect x="56.7325" y="56.079" width="6.31801" height="33.1696" transform="rotate(-131.694 56.7325 56.079)" fill="#FF0856"/>
<rect x="6.62122" y="52.0659" width="6.31801" height="34.7491" transform="rotate(-131.694 6.62122 52.0659)" fill="#F9EB18"/>
</svg>
