<svg width="72" height="72" viewBox="0 0 72 72" fill="none" xmlns="http://www.w3.org/2000/svg">
<path d="M6.73924 71.4538C6.73924 71.4538 0.816101 71.4538 0.816101 65.5307C0.816101 59.6076 6.73924 41.8382 36.3549 41.8382C65.9706 41.8382 71.8937 59.6076 71.8937 65.5307C71.8937 71.4538 65.9706 71.4538 65.9706 71.4538H6.73924ZM36.3549 35.915C41.0677 35.915 45.5874 34.0429 48.9198 30.7105C52.2522 27.3781 54.1243 22.8584 54.1243 18.1456C54.1243 13.4329 52.2522 8.91317 48.9198 5.58076C45.5874 2.24835 41.0677 0.376221 36.3549 0.376221C31.6422 0.376221 27.1225 2.24835 23.79 5.58076C20.4576 8.91317 18.5855 13.4329 18.5855 18.1456C18.5855 22.8584 20.4576 27.3781 23.79 30.7105C27.1225 34.0429 31.6422 35.915 36.3549 35.915V35.915Z" fill="white"/>
</svg>
