<svg width="42" height="42" viewBox="0 0 42 42" fill="none" xmlns="http://www.w3.org/2000/svg">
<path d="M41 4.15697C40.9987 3.99276 40.9523 3.83208 40.866 3.69239C40.7797 3.55269 40.6567 3.43934 40.5104 3.36466C40.3642 3.28998 40.2003 3.25683 40.0365 3.26881C39.8727 3.28079 39.7154 3.33745 39.5816 3.43262L36.0583 5.95834L35.7809 6.15809C31.9843 2.36923 26.7734 0 20.9994 0C9.42001 0 0 9.42119 0 21C0 32.5788 9.4206 42 20.9994 42C24.4378 42.0006 27.8237 41.1568 30.8597 39.5426C33.8956 37.9284 36.4886 35.5933 38.4109 32.7424C38.4885 32.6282 38.5427 32.4998 38.5705 32.3645C38.5984 32.2293 38.5992 32.0899 38.5731 31.9543C38.5469 31.8187 38.4943 31.6896 38.4181 31.5744C38.342 31.4593 38.2438 31.3602 38.1293 31.2831L32.8758 27.637C32.6286 27.4718 32.3262 27.4109 32.0344 27.4678C31.7425 27.5246 31.485 27.6946 31.318 27.9405C28.9956 31.3737 25.1475 33.4235 21.019 33.4235C14.1679 33.4235 8.59371 27.8504 8.59371 21.0012C8.59371 14.1519 14.1679 8.57889 21.019 8.57889C23.9104 8.57889 26.5624 9.5842 28.6738 11.2463L28.0804 11.6731L24.5547 14.1982C24.4218 14.2946 24.3178 14.4256 24.2543 14.577C24.1907 14.7284 24.1699 14.8944 24.1942 15.0568C24.2185 15.2192 24.2869 15.3719 24.3919 15.4981C24.497 15.6243 24.6347 15.7192 24.7901 15.7725L39.8732 20.9111C40.1465 21.0065 40.4458 20.9603 40.6841 20.7908C40.9206 20.6189 41.0569 20.348 41.0557 20.0611L41 4.15697V4.15697Z" fill="white"/>
</svg>
