<svg width="341" height="113" viewBox="0 0 341 113" fill="none" xmlns="http://www.w3.org/2000/svg">
<path d="M0 10.4902C0 4.69662 4.69662 0 10.4902 0H167.4V56.5H0V10.4902Z" fill="#F9EB18"/>
<path d="M167.4 0H330.51C336.303 0 341 4.69662 341 10.4902V56.5H167.4V0Z" fill="#08CEFB"/>
<path d="M0 56.5H167.4V113H10.4902C4.69662 113 0 108.303 0 102.51V56.5Z" fill="#5AE06C"/>
<path d="M167.4 56.5H341V102.51C341 108.303 336.303 113 330.51 113H167.4V56.5Z" fill="#FF0856"/>
<path d="M124.905 58.848C124.934 61.9679 124.548 64.9851 123.749 67.8996C122.98 70.7832 121.873 73.5021 120.428 76.0563C118.983 78.5799 117.23 80.8926 115.169 82.9945C113.109 85.0963 110.831 86.9099 108.337 88.4351C105.842 89.9297 103.145 91.0899 100.247 91.9158C97.3487 92.7723 94.3397 93.2169 91.2198 93.2498C88.0999 93.2827 85.0833 92.9015 82.17 92.1063C79.2876 91.3413 76.5703 90.2381 74.0181 88.7966C71.4962 87.3243 69.1858 85.5591 67.0869 83.5011C64.9879 81.4431 63.1775 79.1679 61.6558 76.6755C60.1643 74.1522 58.9925 71.4573 58.1403 68.5908C57.3184 65.6934 56.8932 62.6848 56.8646 59.5649C56.836 56.445 57.206 53.4279 57.9746 50.5138C58.7738 47.5993 59.896 44.8802 61.3412 42.3566C62.817 39.8327 64.5853 37.5198 66.6461 35.4179C68.707 33.3161 70.9847 31.5178 73.4794 30.0232C76.0046 28.5283 78.7012 27.368 81.5691 26.5425C84.4672 25.686 87.4763 25.2413 90.5961 25.2085C93.716 25.1756 96.7326 25.5568 99.6459 26.352C102.559 27.1167 105.276 28.2199 107.798 29.6617C110.319 31.1034 112.63 32.8533 114.729 34.9113C116.828 36.9693 118.623 39.2447 120.114 41.7374C121.605 44.2301 122.762 46.9251 123.583 49.8225C124.436 52.7196 124.876 55.7281 124.905 58.848ZM111.829 58.9858C111.803 56.1106 111.227 53.4094 110.103 50.8823C108.978 48.3245 107.459 46.1228 105.546 44.2769C103.663 42.4002 101.431 40.9247 98.8519 39.8507C96.3031 38.7763 93.5911 38.2542 90.716 38.2845C87.8102 38.3151 85.093 38.8944 82.5644 40.0223C80.0358 41.1502 77.832 42.6723 75.953 44.5887C74.0737 46.4745 72.5953 48.7079 71.5177 51.2888C70.4399 53.8391 69.9141 56.5519 69.9405 59.4271C69.9668 62.3023 70.5422 65.0035 71.6666 67.5306C72.7907 70.0272 74.3097 72.2137 76.2234 74.0901C78.1372 75.9665 80.3685 77.4419 82.9173 78.5163C85.4661 79.5907 88.1933 80.1126 91.0991 80.082C93.9743 80.0517 96.6761 79.4726 99.2048 78.3447C101.764 77.2165 103.968 75.6944 105.816 73.7783C107.695 71.8619 109.174 69.6439 110.252 67.1241C111.33 64.5738 111.855 61.861 111.829 58.9858ZM186.5 90.8235L172.415 90.9719L146.646 47.9277L147.043 91.2392L133.875 91.378L133.272 25.5848L147.358 25.4364L173.127 68.5265L172.729 25.1691L185.897 25.0303L186.5 90.8235ZM243.85 90.2193L198.75 90.6945L198.147 24.9013L243.247 24.4261L243.368 37.5939L211.435 37.9304L211.556 51.0982L233.166 50.8705L233.286 64.0383L211.677 64.266L211.797 77.3879L243.73 77.0515L243.85 90.2193Z" fill="white"/>
<path d="M269.827 89.7131C268.986 90.4425 268.046 91.0077 267.007 91.4086C265.968 91.801 264.884 92.0032 263.757 92.0151C262.892 92.0242 262.056 91.9186 261.249 91.6982C260.45 91.4862 259.701 91.1804 259.003 90.7808C258.304 90.3728 257.663 89.8879 257.082 89.326C256.5 88.7557 256.003 88.1251 255.589 87.4343C255.176 86.735 254.851 85.984 254.615 85.1811C254.387 84.3781 254.269 83.5443 254.262 82.6797C254.254 81.8151 254.356 80.9832 254.569 80.1841C254.791 79.3849 255.102 78.6356 255.502 77.9363C255.903 77.2284 256.389 76.5875 256.96 76.0135C257.531 75.431 258.162 74.9326 258.854 74.5184C259.545 74.1042 260.288 73.7828 261.083 73.554C261.886 73.3166 262.72 73.1934 263.584 73.1843C264.712 73.1724 265.798 73.3559 266.845 73.7349C267.891 74.1053 268.841 74.6464 269.695 75.3579L267.817 78.5568C267.261 78.0031 266.621 77.5733 265.898 77.2672C265.174 76.9527 264.414 76.7996 263.618 76.808C262.821 76.8164 262.072 76.9769 261.371 77.2895C260.679 77.602 260.072 78.0237 259.552 78.5548C259.031 79.0774 258.621 79.6921 258.322 80.3989C258.024 81.0972 257.878 81.8448 257.885 82.6416C257.893 83.4468 258.052 84.1996 258.364 84.9C258.675 85.6003 259.096 86.2105 259.627 86.7305C260.157 87.2505 260.771 87.6595 261.469 87.9573C262.175 88.255 262.927 88.3997 263.724 88.3913C264.181 88.3865 264.626 88.3267 265.057 88.212C265.489 88.0972 265.898 87.9403 266.286 87.7412L266.239 82.5535L269.761 82.5164L269.827 89.7131ZM285.47 91.3921L284.631 91.401L283.266 89.5461C282.938 89.8462 282.589 90.1297 282.218 90.3964C281.856 90.6545 281.473 90.8832 281.068 91.0824C280.662 91.2732 280.244 91.426 279.813 91.5407C279.39 91.6554 278.958 91.715 278.517 91.7197C277.56 91.7298 276.655 91.5782 275.805 91.2651C274.963 90.9518 274.221 90.4933 273.58 89.8897C272.947 89.2775 272.444 88.5283 272.071 87.6421C271.699 86.7559 271.507 85.7449 271.497 84.609C271.487 83.5495 271.66 82.577 272.017 81.6916C272.373 80.7977 272.862 80.0295 273.483 79.3872C274.113 78.7447 274.846 78.2453 275.682 77.889C276.527 77.524 277.428 77.3365 278.386 77.3264C278.826 77.3217 279.263 77.3722 279.697 77.4779C280.13 77.5835 280.551 77.7317 280.96 77.9224C281.368 78.113 281.756 78.3378 282.123 78.5968C282.498 78.8556 282.849 79.1359 283.173 79.4377L284.506 77.8087L285.346 77.7999L285.47 91.3921ZM281.91 84.4993C281.906 84.0246 281.808 83.5679 281.618 83.1291C281.436 82.6817 281.186 82.2901 280.869 81.9543C280.553 81.6101 280.181 81.3385 279.756 81.1395C279.338 80.932 278.892 80.8307 278.418 80.8357C277.943 80.8407 277.495 80.926 277.072 81.0915C276.658 81.2569 276.296 81.4981 275.985 81.8151C275.683 82.1319 275.445 82.5244 275.271 82.9925C275.097 83.4521 275.013 83.9786 275.019 84.5719C275.024 85.1653 275.118 85.6941 275.3 86.1585C275.482 86.6143 275.728 86.9975 276.036 87.3079C276.352 87.6182 276.719 87.8517 277.136 88.0084C277.561 88.165 278.011 88.2408 278.486 88.2358C278.96 88.2308 279.404 88.1244 279.818 87.9166C280.24 87.7002 280.606 87.4208 280.916 87.0785C281.227 86.7276 281.469 86.3309 281.643 85.8882C281.825 85.437 281.914 84.974 281.91 84.4993ZM305.445 91.1817L301.987 91.2181L301.907 82.572C301.905 82.3346 301.856 82.1105 301.761 81.8995C301.675 81.6885 301.55 81.5033 301.387 81.344C301.225 81.1846 301.037 81.0637 300.825 80.9811C300.612 80.8901 300.387 80.8459 300.149 80.8484C299.912 80.8509 299.688 80.8998 299.477 80.9953C299.274 81.0822 299.093 81.2071 298.934 81.3698C298.782 81.5325 298.661 81.7203 298.57 81.9332C298.487 82.146 298.447 82.371 298.449 82.6084L298.528 91.2545L295.057 91.2911L294.978 82.645C294.976 82.4076 294.927 82.1835 294.832 81.9725C294.745 81.7615 294.62 81.5763 294.458 81.417C294.295 81.2576 294.108 81.1367 293.895 81.0541C293.682 80.9631 293.457 80.9189 293.22 80.9214C292.983 80.9239 292.758 80.9729 292.547 81.0683C292.345 81.1552 292.164 81.2801 292.004 81.4428C291.853 81.6055 291.732 81.7933 291.64 82.0062C291.558 82.219 291.517 82.4441 291.519 82.6814L291.599 91.3275L288.128 91.3641L288.003 77.7464L288.842 77.7376L289.792 78.7703C290.272 78.3583 290.799 78.0391 291.373 77.8127C291.956 77.5776 292.561 77.4568 293.188 77.4502C293.824 77.4435 294.444 77.5556 295.048 77.7867C295.66 78.0176 296.198 78.4231 296.661 79.0031C296.87 78.7127 297.11 78.4643 297.379 78.258C297.648 78.0517 297.931 77.8834 298.226 77.7532C298.53 77.6228 298.843 77.5305 299.165 77.4762C299.486 77.4135 299.804 77.3805 300.118 77.3772C300.838 77.3696 301.513 77.4981 302.143 77.7628C302.781 78.0273 303.336 78.3945 303.806 78.8643C304.285 79.3255 304.663 79.8725 304.94 80.5054C305.217 81.1383 305.359 81.815 305.366 82.5355L305.445 91.1817ZM313.374 87.7665C313.51 87.8075 313.646 87.8357 313.782 87.8512C313.917 87.8583 314.053 87.8611 314.189 87.8596C314.528 87.8561 314.854 87.806 315.166 87.7095C315.479 87.6129 315.77 87.4785 316.04 87.3061C316.318 87.1251 316.562 86.9106 316.772 86.6625C316.99 86.4059 317.165 86.1243 317.298 85.8177L319.864 88.3466C319.546 88.8078 319.177 89.2228 318.757 89.5918C318.345 89.9606 317.894 90.2748 317.405 90.5343C316.924 90.7937 316.413 90.9898 315.872 91.1227C315.339 91.2639 314.788 91.3376 314.221 91.3435C313.263 91.3536 312.358 91.1851 311.507 90.838C310.665 90.4909 309.923 90.0028 309.281 89.3737C308.648 88.7446 308.146 87.9954 307.773 87.1261C307.4 86.2484 307.209 85.284 307.2 84.2329C307.19 83.1563 307.363 82.1711 307.719 81.2773C308.076 80.3834 308.565 79.6195 309.186 78.9856C309.816 78.3516 310.549 77.8565 311.385 77.5001C312.23 77.1436 313.131 76.9603 314.089 76.9502C314.657 76.9443 315.212 77.0062 315.756 77.1361C316.3 77.266 316.814 77.4556 317.3 77.7048C317.794 77.9539 318.255 78.2627 318.682 78.6312C319.109 78.9913 319.486 79.3985 319.812 79.8528L313.374 87.7665ZM315.088 80.5892C314.927 80.5316 314.765 80.4952 314.604 80.4799C314.451 80.4646 314.29 80.4578 314.121 80.4596C313.646 80.4646 313.198 80.5583 312.775 80.7408C312.362 80.9147 311.999 81.1643 311.689 81.4898C311.387 81.8151 311.149 82.2076 310.975 82.6672C310.801 83.1183 310.716 83.6278 310.722 84.1958C310.723 84.3229 310.728 84.467 310.738 84.6279C310.757 84.7888 310.78 84.9539 310.806 85.1232C310.842 85.2839 310.881 85.4403 310.925 85.5924C310.969 85.7445 311.025 85.8796 311.094 85.9975L315.088 80.5892Z" fill="white"/>
<path d="M277.611 70.9577C276.965 71.5245 276.24 71.9618 275.435 72.2698C274.631 72.5777 273.796 72.7363 272.93 72.7454C272.266 72.7524 271.624 72.6713 271.004 72.502C270.39 72.3392 269.812 72.1044 269.269 71.7976C268.732 71.4842 268.24 71.1085 267.793 70.6705C267.347 70.2325 266.961 69.7482 266.638 69.2178C266.32 68.6807 266.071 68.1071 265.889 67.497C265.714 66.8804 265.624 66.24 265.618 65.576C265.612 64.9119 265.69 64.2698 265.854 63.6495C266.024 63.0292 266.263 62.4505 266.571 61.9134C266.885 61.3697 267.261 60.8742 267.7 60.4268C268.138 59.9794 268.623 59.5967 269.154 59.2786C269.691 58.9539 270.265 58.7037 270.876 58.528C271.492 58.3457 272.133 58.2511 272.797 58.2441C273.663 58.2349 274.501 58.3759 275.311 58.6668C276.121 58.9513 276.854 59.3733 277.51 59.9328L276.048 62.3897C275.634 61.9514 275.146 61.6179 274.584 61.3895C274.022 61.1545 273.435 61.0402 272.823 61.0467C272.204 61.0532 271.626 61.1765 271.088 61.4165C270.549 61.6566 270.08 61.9806 269.681 62.3885C269.281 62.7898 268.966 63.2652 268.737 63.8145C268.507 64.3573 268.395 64.9347 268.401 65.5466C268.406 66.1586 268.529 66.7335 268.768 67.2714C269.007 67.8027 269.331 68.2681 269.738 68.6675C270.145 69.0669 270.62 69.3809 271.163 69.6096C271.705 69.8382 272.286 69.9493 272.904 69.9428C273.516 69.9364 274.101 69.813 274.659 69.5727C275.216 69.326 275.698 68.9791 276.104 68.5321L277.611 70.9577ZM288.727 72.2762L288.083 72.283L287.034 70.8584C286.782 71.089 286.514 71.3067 286.23 71.5115C285.952 71.7097 285.657 71.8854 285.346 72.0384C285.035 72.1849 284.713 72.3022 284.382 72.3904C284.057 72.4784 283.726 72.5242 283.387 72.5278C282.652 72.5356 281.957 72.4192 281.304 72.1786C280.657 71.9381 280.088 71.586 279.595 71.1224C279.109 70.6522 278.723 70.0768 278.437 69.3962C278.15 68.7156 278.003 67.9391 277.995 67.0667C277.988 66.253 278.121 65.5061 278.395 64.8261C278.668 64.1396 279.044 63.5496 279.521 63.0563C280.005 62.5629 280.568 62.1793 281.21 61.9056C281.858 61.6254 282.55 61.4813 283.286 61.4736C283.624 61.47 283.96 61.5088 284.293 61.5899C284.626 61.6711 284.949 61.7849 285.263 61.9313C285.577 62.0777 285.875 62.2504 286.156 62.4493C286.445 62.6481 286.714 62.8633 286.963 63.0951L287.987 61.844L288.631 61.8372L288.727 72.2762ZM285.993 66.9825C285.989 66.6179 285.915 66.2671 285.768 65.9301C285.628 65.5865 285.437 65.2858 285.194 65.0279C284.95 64.7635 284.665 64.5549 284.338 64.4021C284.018 64.2427 283.675 64.1649 283.311 64.1688C282.946 64.1726 282.602 64.2381 282.277 64.3652C281.959 64.4923 281.681 64.6775 281.442 64.9209C281.21 65.1643 281.028 65.4657 280.894 65.8252C280.761 66.1782 280.696 66.5825 280.7 67.0382C280.704 67.494 280.776 67.9001 280.916 68.2567C281.056 68.6068 281.245 68.9011 281.481 69.1395C281.724 69.3778 282.006 69.5572 282.326 69.6775C282.653 69.7978 282.998 69.856 283.363 69.8521C283.727 69.8483 284.068 69.7666 284.386 69.607C284.71 69.4408 284.991 69.2262 285.23 68.9633C285.468 68.6938 285.654 68.3891 285.788 68.0492C285.928 67.7026 285.996 67.347 285.993 66.9825ZM293.434 72.2266L290.768 72.2547L290.672 61.7962L291.317 61.7894L292.207 63.0203C292.633 62.6252 293.118 62.3206 293.663 62.1065C294.208 61.8859 294.774 61.7725 295.359 61.7663L297.713 61.7415L297.737 64.3977L295.384 64.4225C295.104 64.4254 294.841 64.4803 294.594 64.587C294.348 64.6938 294.134 64.8393 293.954 65.0235C293.773 65.2077 293.632 65.4241 293.53 65.6725C293.428 65.921 293.378 66.1852 293.381 66.4652L293.434 72.2266ZM308.96 72.0631L308.316 72.0698L307.268 70.6453C307.016 70.8758 306.748 71.0935 306.463 71.2983C306.185 71.4966 305.89 71.6722 305.579 71.8252C305.268 71.9717 304.947 72.0891 304.615 72.1772C304.291 72.2653 303.959 72.3111 303.621 72.3146C302.885 72.3224 302.19 72.193 301.537 71.9264C300.89 71.6533 300.32 71.2751 299.827 70.792C299.341 70.3023 298.955 69.7237 298.669 69.0561C298.382 68.382 298.236 67.6478 298.228 66.8536C298.221 66.0658 298.355 65.332 298.628 64.652C298.902 63.972 299.277 63.382 299.755 62.8822C300.238 62.3823 300.801 61.989 301.443 61.7022C302.092 61.4154 302.784 61.2682 303.519 61.2604C303.754 61.2579 303.995 61.2749 304.242 61.3114C304.497 61.3478 304.741 61.4103 304.977 61.499C305.218 61.5811 305.444 61.6926 305.653 61.8337C305.863 61.9747 306.04 62.1486 306.186 62.3554L306.141 57.4728L308.826 57.4445L308.96 72.0631ZM306.226 66.7693C306.223 66.4047 306.148 66.0539 306.002 65.7169C305.862 65.3733 305.67 65.0726 305.427 64.8147C305.184 64.5504 304.898 64.3418 304.572 64.1889C304.251 64.0296 303.908 63.9518 303.544 63.9556C303.179 63.9595 302.835 64.0282 302.511 64.1618C302.193 64.2954 301.915 64.4871 301.676 64.7371C301.444 64.9804 301.261 65.2786 301.128 65.6316C300.994 65.9845 300.929 66.3824 300.933 66.8251C300.937 67.2092 301.009 67.573 301.148 67.9166C301.288 68.2602 301.477 68.561 301.713 68.8189C301.957 69.0768 302.239 69.2789 302.559 69.4253C302.886 69.5716 303.231 69.6428 303.596 69.639C303.961 69.6351 304.302 69.5534 304.619 69.3938C304.943 69.2276 305.224 69.0131 305.463 68.7501C305.701 68.4807 305.887 68.1759 306.021 67.836C306.161 67.4894 306.229 67.1339 306.226 66.7693Z" fill="white"/>
<rect x="9.11818" y="9.11818" width="322.764" height="95.7636" rx="12.4879" stroke="white" stroke-width="5.76364"/>
</svg>
